<svg width="16" height="16" viewBox="0 0 16 16" fill="none" xmlns="http://www.w3.org/2000/svg">
<path d="M9.33337 13.6V9.73333C9.33337 9.5124 9.51244 9.33333 9.73337 9.33333H13.6C13.821 9.33333 14 9.5124 14 9.73333V13.6C14 13.8209 13.821 14 13.6 14H9.73337C9.51244 14 9.33337 13.8209 9.33337 13.6Z" stroke="#1F3F81" stroke-width="1.5"/>
<path d="M2 13.6V9.73333C2 9.5124 2.17909 9.33333 2.4 9.33333H6.26667C6.48758 9.33333 6.66667 9.5124 6.66667 9.73333V13.6C6.66667 13.8209 6.48758 14 6.26667 14H2.4C2.17909 14 2 13.8209 2 13.6Z" fill="#1F3F81" stroke="#1F3F81" stroke-width="1.5"/>
<path d="M9.33337 6.26667V2.4C9.33337 2.17909 9.51244 2 9.73337 2H13.6C13.821 2 14 2.17909 14 2.4V6.26667C14 6.48758 13.821 6.66667 13.6 6.66667H9.73337C9.51244 6.66667 9.33337 6.48758 9.33337 6.26667Z" stroke="#1F3F81" stroke-width="1.5"/>
<path d="M2 6.26667V2.4C2 2.17909 2.17909 2 2.4 2H6.26667C6.48758 2 6.66667 2.17909 6.66667 2.4V6.26667C6.66667 6.48758 6.48758 6.66667 6.26667 6.66667H2.4C2.17909 6.66667 2 6.48758 2 6.26667Z" stroke="#1F3F81" stroke-width="1.5"/>
</svg>
