<svg width="16" height="16" viewBox="0 0 16 16" fill="none" xmlns="http://www.w3.org/2000/svg">
<path d="M13.3327 3.02215V12.9777C13.3327 13.1741 13.1735 13.3333 12.9771 13.3333H3.02157C2.8252 13.3333 2.66602 13.1741 2.66602 12.9777V3.02215C2.66602 2.82578 2.8252 2.6666 3.02157 2.6666H12.9771C13.1735 2.6666 13.3327 2.82578 13.3327 3.02215Z" stroke="black" stroke-width="1.5" stroke-linecap="round" stroke-linejoin="round"/>
<path d="M6.81416 7.33326L2.66602 10.4912V13.3333H13.3327V11.7543L6.81416 7.33326Z" fill="black"/>
<path d="M10.334 6.6666C9.78168 6.6666 9.33398 6.21888 9.33398 5.6666C9.33398 5.11431 9.78168 4.6666 10.334 4.6666C10.8863 4.6666 11.334 5.11431 11.334 5.6666C11.334 6.21888 10.8863 6.6666 10.334 6.6666Z" stroke="black" stroke-width="1.5" stroke-linecap="round" stroke-linejoin="round"/>
</svg>
