<svg width="28" height="25" viewBox="0 0 28 25" fill="none" xmlns="http://www.w3.org/2000/svg">
<path d="M0.490981 11.9998L6.92832 14.4567L9.43777 22.7207C9.54688 23.2791 10.2015 23.3908 10.638 23.0558L14.2385 20.0405C14.5658 19.7055 15.1113 19.7055 15.5478 20.0405L21.9851 24.8426C22.4215 25.1776 23.0762 24.9543 23.1853 24.3959L27.986 0.943833C28.0951 0.385451 27.5495 -0.172926 27.004 0.050427L0.490981 10.548C-0.16366 10.7714 -0.16366 11.7764 0.490981 11.9998ZM9.11046 13.2282L21.7668 5.29922C21.9851 5.18754 22.2033 5.52257 21.9851 5.63425L11.6199 15.5735C11.2926 15.9085 10.9653 16.3552 10.9653 16.9136L10.638 19.5938C10.638 19.9288 10.0924 20.0405 9.9833 19.5938L8.67401 14.68C8.34668 14.1217 8.56493 13.4516 9.11046 13.2282Z" fill="#1F3F81"/>
</svg>
