<svg width="16" height="16" viewBox="0 0 16 16" fill="none" xmlns="http://www.w3.org/2000/svg">
<path fill-rule="evenodd" clip-rule="evenodd" d="M11.3125 4.6464C11.5078 4.45114 11.8243 4.45114 12.0196 4.6464L11.666 4.99995C12.0196 4.6464 12.0194 4.64625 12.0196 4.6464L12.0202 4.64702L12.0209 4.64774L12.0226 4.64946L12.0271 4.65404L12.0402 4.66772C12.0508 4.67884 12.0648 4.69396 12.0818 4.71301C12.1158 4.75109 12.162 4.80499 12.216 4.87409C12.324 5.01206 12.4649 5.21202 12.6049 5.46886C12.8851 5.98238 13.166 6.73102 13.166 7.66662C13.166 8.60222 12.8851 9.35089 12.6049 9.86435C12.4649 10.1212 12.324 10.3212 12.216 10.4592C12.162 10.5282 12.1158 10.5822 12.0818 10.6202C12.0648 10.6393 12.0508 10.6544 12.0402 10.6656L12.0271 10.6792L12.0226 10.6838L12.0209 10.6855L12.0202 10.6862C12.0201 10.6864 12.0196 10.6868 11.6798 10.3471L12.0196 10.6868C11.8243 10.8821 11.5078 10.8821 11.3125 10.6868C11.1178 10.4922 11.1172 10.1769 11.3108 9.98149C11.3113 9.98089 11.3119 9.98029 11.3125 9.97975L11.666 10.3333C11.3125 9.97975 11.3126 9.97962 11.3125 9.97975L11.312 9.98029L11.3108 9.98149L11.3143 9.97775C11.3184 9.97342 11.3258 9.96542 11.3361 9.95389C11.3568 9.93075 11.3888 9.89355 11.4285 9.84282C11.508 9.74122 11.6172 9.58702 11.7271 9.38555C11.947 8.98235 12.166 8.39769 12.166 7.66662C12.166 6.93555 11.947 6.35086 11.7271 5.94771C11.6172 5.74622 11.508 5.59201 11.4285 5.4904C11.3888 5.43971 11.3568 5.40247 11.3361 5.37934C11.3258 5.36779 11.3184 5.35981 11.3143 5.35546L11.3108 5.35178C11.1172 5.15638 11.1178 4.84109 11.3125 4.6464Z" fill="black"/>
<path fill-rule="evenodd" clip-rule="evenodd" d="M13.3125 2.6464C13.5077 2.45114 13.8243 2.45114 14.0195 2.6464L13.666 2.99995C14.0195 2.6464 14.0194 2.64623 14.0195 2.6464L14.0203 2.6471L14.0211 2.64795L14.0233 2.65013L14.0293 2.65637C14.0342 2.66135 14.0406 2.668 14.0484 2.67629C14.0641 2.69288 14.0855 2.71609 14.1119 2.74583C14.1645 2.8053 14.2371 2.89103 14.3227 3.00239C14.4939 3.22495 14.7184 3.55097 14.9418 3.97541C15.389 4.82511 15.8327 6.07121 15.8327 7.66662C15.8327 9.26202 15.389 10.5082 14.9418 11.3578C14.7184 11.7823 14.4939 12.1083 14.3227 12.3308C14.2371 12.4422 14.1645 12.528 14.1119 12.5874C14.0855 12.6172 14.0641 12.6404 14.0484 12.657C14.0406 12.6652 14.0342 12.6719 14.0293 12.6769L14.0233 12.6831L14.0211 12.6853L14.0203 12.6862C14.0201 12.6864 14.0195 12.6868 13.666 12.3333L14.0195 12.6868C13.8243 12.8821 13.5077 12.8821 13.3125 12.6868C13.1174 12.4918 13.1172 12.1757 13.3118 11.9804C13.3117 11.9804 13.3119 11.9804 13.3118 11.9804L13.3112 11.981C13.3113 11.9809 13.3112 11.981 13.3118 11.9804L13.321 11.9708C13.3298 11.9614 13.3442 11.9459 13.3634 11.9242C13.4019 11.8808 13.4595 11.8129 13.5301 11.7212C13.6714 11.5374 13.8636 11.2593 14.0569 10.8921C14.443 10.1584 14.8327 9.07122 14.8327 7.66662C14.8327 6.26203 14.443 5.1748 14.0569 4.44116C13.8636 4.07393 13.6714 3.79579 13.5301 3.6121C13.4595 3.52033 13.4019 3.45241 13.3634 3.40902C13.3442 3.38733 13.3298 3.3718 13.321 3.36251L13.3122 3.35329C13.3115 3.35261 13.3112 3.35225 13.3111 3.35221L13.3122 3.35329C13.1173 3.158 13.1173 2.84157 13.3125 2.6464Z" fill="black"/>
<path fill-rule="evenodd" clip-rule="evenodd" d="M8.02382 2.26422C8.79948 1.75277 9.83268 2.30911 9.83268 3.23823V12.762C9.83268 13.6912 8.79948 14.2475 8.02382 13.736L4.02443 11.0991C3.9972 11.0812 3.9653 11.0716 3.93268 11.0716H1.99935C0.986829 11.0716 0.166016 10.2508 0.166016 9.23822V6.76202C0.166016 5.74951 0.986829 4.92871 1.99935 4.92871H3.93268C3.9653 4.92871 3.9972 4.91913 4.02443 4.90118L8.02382 2.26422Z" fill="black"/>
</svg>
