<svg width="16" height="16" viewBox="0 0 16 16" fill="none" xmlns="http://www.w3.org/2000/svg">
<path d="M9.33325 13.6V9.73334C9.33325 9.51241 9.51232 9.33334 9.73325 9.33334H13.5999C13.8209 9.33334 13.9999 9.51241 13.9999 9.73334V13.6C13.9999 13.8209 13.8209 14 13.5999 14H9.73325C9.51232 14 9.33325 13.8209 9.33325 13.6Z" stroke="#1F3F81" stroke-width="1.5"/>
<path d="M2 13.6V9.73334C2 9.51241 2.17909 9.33334 2.4 9.33334H6.26667C6.48758 9.33334 6.66667 9.51241 6.66667 9.73334V13.6C6.66667 13.8209 6.48758 14 6.26667 14H2.4C2.17909 14 2 13.8209 2 13.6Z" stroke="#1F3F81" stroke-width="1.5"/>
<path d="M9.33325 6.26667V2.4C9.33325 2.17909 9.51232 2 9.73325 2H13.5999C13.8209 2 13.9999 2.17909 13.9999 2.4V6.26667C13.9999 6.48758 13.8209 6.66667 13.5999 6.66667H9.73325C9.51232 6.66667 9.33325 6.48758 9.33325 6.26667Z" stroke="#1F3F81" stroke-width="1.5"/>
<path d="M2 6.26667V2.4C2 2.17909 2.17909 2 2.4 2H6.26667C6.48758 2 6.66667 2.17909 6.66667 2.4V6.26667C6.66667 6.48758 6.48758 6.66667 6.26667 6.66667H2.4C2.17909 6.66667 2 6.48758 2 6.26667Z" stroke="#1F3F81" stroke-width="1.5"/>
</svg>
