<svg width="30" height="20" viewBox="0 0 30 20" fill="none" xmlns="http://www.w3.org/2000/svg">
<path d="M29.7213 17.9452C29.7213 17.8082 29.602 17.8082 29.602 17.6712C29.1245 16.5753 28.0503 15.2055 26.6179 13.6986C25.9017 13.0137 25.5436 12.4658 25.3049 12.1918C24.9468 11.6438 24.9468 11.2329 25.0662 10.6849C25.1856 10.274 25.663 9.58903 26.4985 8.35616C26.976 7.67123 27.2147 7.26028 27.5728 6.84932C29.3632 4.10959 30.1988 2.32876 29.96 1.50684L29.8407 1.36986C29.7214 1.23288 29.602 1.0959 29.3632 1.0959C29.1245 0.958909 28.7664 0.958909 28.4083 1.0959H23.8726C23.7532 1.0959 23.7532 1.0959 23.5145 1.0959C23.3951 1.0959 23.2758 1.0959 23.2758 1.0959H23.1564H23.037L22.9177 1.23287C22.7983 1.36986 22.7983 1.36985 22.7983 1.50684C22.3208 3.01369 21.724 4.24657 21.1272 5.61643C20.7691 6.30136 20.411 6.98631 20.053 7.53425C19.6949 8.0822 19.4561 8.49315 19.2174 8.76712C18.9787 9.04109 18.7399 9.17808 18.6206 9.45205C18.5012 9.58904 18.2625 9.72603 18.2625 9.58905C18.1431 9.58905 18.0238 9.58904 18.0238 9.45205C17.9044 9.31507 17.7851 9.17807 17.6657 9.04109C17.5463 8.9041 17.5463 8.63013 17.427 8.35616C17.427 8.08218 17.427 7.80821 17.427 7.67123C17.427 7.53424 17.427 7.12329 17.427 6.84932C17.427 6.43836 17.427 6.16438 17.427 6.02739C17.427 5.61643 17.427 5.0685 17.427 4.52056C17.427 3.97261 17.427 3.56164 17.427 3.28766C17.427 3.01369 17.427 2.60274 17.427 2.32876C17.427 1.91781 17.427 1.64382 17.427 1.50684C17.427 1.36985 17.3076 1.09589 17.3076 0.958901C17.1883 0.821914 17.0689 0.684924 16.9495 0.547937C16.8302 0.410951 16.5914 0.410955 16.4721 0.273969C15.8753 0.136982 15.1591 0 14.3236 0C12.4137 0 11.1007 0.136991 10.6233 0.410963C10.3846 0.54795 10.1458 0.684928 10.0265 0.958901C9.78776 1.23287 9.78775 1.36986 9.90711 1.36986C10.5039 1.50685 10.9814 1.78081 11.2201 2.19177L11.3395 2.46576C11.4588 2.60275 11.4588 2.87671 11.5782 3.28766C11.6975 3.69862 11.6976 4.10958 11.6976 4.65753C11.6976 5.47945 11.6976 6.30137 11.6976 6.84932C11.6976 7.53425 11.5782 7.9452 11.5782 8.35616C11.5782 8.76712 11.4588 9.0411 11.3395 9.17808C11.2201 9.45206 11.2201 9.58905 11.1007 9.58905C11.1007 9.58905 11.1007 9.72602 10.9814 9.72602C10.862 9.72602 10.7427 9.86302 10.5039 9.86302C10.3846 9.86302 10.1458 9.72603 10.0265 9.58905C9.78776 9.45206 9.54903 9.17809 9.42967 8.90412C9.19095 8.63014 8.95221 8.21917 8.71349 7.67123C8.47476 7.12328 8.11666 6.57534 7.87793 5.75342L7.63923 5.20549C7.51987 4.93151 7.28114 4.38356 7.04242 3.69863C6.80369 3.0137 6.56496 2.46576 6.32623 1.78083C6.20687 1.50685 6.08752 1.36986 5.96816 1.23287H5.84879C5.84879 1.23287 5.72941 1.0959 5.61005 1.0959C5.49068 1.0959 5.37134 0.958901 5.25197 0.958901H0.954906C0.477455 0.958901 0.238733 1.09588 0.11937 1.23287L0 1.36986C0 1.36986 0 1.50685 0 1.64383C0 1.78082 7.27889e-06 1.9178 0.11937 2.19177C0.716184 3.83561 1.43236 5.47945 2.14853 7.12329C2.86471 8.63014 3.58089 10 4.05835 10.9589C4.65516 11.9178 5.1326 12.8767 5.72942 13.6986C6.32623 14.5206 6.68431 15.0685 6.80368 15.3425C7.0424 15.6164 7.16176 15.7534 7.28112 15.8904L7.63923 16.3014C7.87795 16.5753 8.23604 16.9863 8.71349 17.3973C9.19094 17.8082 9.78775 18.2192 10.3846 18.6301C10.9814 19.0411 11.6976 19.3151 12.4137 19.5891C13.2493 19.863 13.9655 20 14.6816 19.863H16.4721C16.8302 19.863 17.0689 19.726 17.3076 19.4521L17.427 19.3151C17.427 19.1781 17.5463 19.1781 17.5463 19.0411C17.5463 18.9041 17.5463 18.7671 17.5463 18.4932C17.5463 17.9452 17.5463 17.5343 17.6657 17.1233C17.7851 16.7123 17.7851 16.4384 17.9044 16.1644C18.0238 15.8904 18.1431 15.7534 18.2625 15.6164C18.3819 15.4795 18.5013 15.3425 18.5013 15.3425H18.6206C18.8593 15.2055 19.2174 15.3425 19.4561 15.6164C19.8142 15.8904 20.1723 16.3014 20.411 16.7123C20.6497 17.1233 21.0079 17.5343 21.4853 18.0822C21.9628 18.6301 22.3209 19.0411 22.5596 19.1781L22.9177 19.4521C23.1564 19.5891 23.3951 19.726 23.7532 19.863C24.1113 20 24.35 20 24.5887 20L28.6471 19.863C29.0052 19.863 29.3633 19.726 29.602 19.5891C29.8407 19.4521 29.96 19.3151 29.96 19.0411C29.96 18.9041 29.96 18.6301 29.96 18.4932C29.7213 18.2192 29.7213 18.0822 29.7213 17.9452Z" fill="#1F3F81"/>
</svg>
