<svg width="16" height="16" viewBox="0 0 16 16" fill="none" xmlns="http://www.w3.org/2000/svg">
<g clip-path="url(#clip0_298_4545)">
<mask id="mask0_298_4545" style="mask-type:luminance" maskUnits="userSpaceOnUse" x="0" y="0" width="16" height="16">
<path d="M16 -4.19617e-05H0V16H16V-4.19617e-05Z" fill="white"/>
</mask>
<g mask="url(#mask0_298_4545)">
<path fill-rule="evenodd" clip-rule="evenodd" d="M11.6464 6.31311C11.8417 6.11782 12.1582 6.11779 12.3535 6.31303L13.3335 7.29282L14.3131 6.31311C14.5084 6.11782 14.8249 6.11779 15.0202 6.31303C15.2155 6.50827 15.2155 6.82482 15.0203 7.02016L14.0407 7.99996L15.0203 8.97976C15.2155 9.17509 15.2155 9.49163 15.0202 9.68689C14.8249 9.88216 14.5084 9.88209 14.3131 9.68682L13.3335 8.70709L12.3535 9.68689C12.1582 9.88216 11.8417 9.88209 11.6464 9.68682C11.4512 9.49149 11.4512 9.17496 11.6465 8.97969L12.6265 7.99996L11.6465 7.02022C11.4512 6.82496 11.4512 6.5084 11.6464 6.31311Z" fill="black"/>
<path fill-rule="evenodd" clip-rule="evenodd" d="M8.69178 2.26422C9.46745 1.75278 10.5007 2.30911 10.5007 3.23823V12.762C10.5007 13.6912 9.46745 14.2475 8.69178 13.736L4.6924 11.0991C4.66516 11.0812 4.63326 11.0716 4.60065 11.0716H2.66732C1.6548 11.0716 0.833984 10.2508 0.833984 9.23822V6.76202C0.833984 5.74952 1.6548 4.92871 2.66732 4.92871H4.60065C4.63326 4.92871 4.66516 4.91914 4.6924 4.90118L8.69178 2.26422Z" fill="black"/>
</g>
</g>
<defs>
<clipPath id="clip0_298_4545">
<rect width="16" height="16" fill="white"/>
</clipPath>
</defs>
</svg>
