<svg width="17" height="16" viewBox="0 0 17 16" fill="none" xmlns="http://www.w3.org/2000/svg">
<path d="M3.16667 2H13.8334C14.2016 2 14.5001 2.29843 14.5001 2.66658L14.5002 3.72379C14.5003 3.90065 14.43 4.07025 14.3049 4.1953L10.0286 8.4714C9.90359 8.5964 9.83333 8.766 9.83333 8.9428V13.1461C9.83333 13.5799 9.42573 13.8981 9.00499 13.7929L7.67166 13.4596C7.37486 13.3854 7.16667 13.1187 7.16667 12.8128V8.9428C7.16667 8.766 7.09643 8.5964 6.97141 8.4714L2.69526 4.19526C2.57023 4.07024 2.5 3.90067 2.5 3.72386V2.66667C2.5 2.29848 2.79847 2 3.16667 2Z" stroke="#1F3F81" stroke-width="1.5" stroke-linecap="round" stroke-linejoin="round"/>
</svg>
