<svg width="200" height="68" viewBox="0 0 200 68" fill="none" xmlns="http://www.w3.org/2000/svg">
<path d="M174.336 65.6365V33.6266H200V39.114H180.576V47.025H199.062V52.238H180.576V60.1491H200V65.6365H174.336Z" fill="#FFFFFE"/>
<path d="M137.866 65.6365V33.6266H144.106V56.3536L161.934 33.6266H168.221V65.6365H161.934V42.9095L144.106 65.6365H137.866Z" fill="#FFFFFE"/>
<path d="M102.357 65.6365V33.6266H108.597V46.8878H125.487V33.6266H131.774V65.6365H125.487V52.3752H108.597V65.6365H102.357Z" fill="#FFFFFE"/>
<path d="M93.1811 65.6365L90.5538 59.6003H74.9304L72.3031 65.6365H65.8285L79.4814 33.6266H86.0028L99.6556 65.6365H93.1811ZM77.0886 54.433H88.3956L82.7655 41.4461L77.0886 54.433Z" fill="#FFFFFE"/>
<path d="M33.723 65.6365V33.6266H39.963V46.8878H56.8531V33.6266H63.1399V65.6365H56.8531V52.3752H39.963V65.6365H33.723Z" fill="#FFFFFE"/>
<path d="M3.84719 42.4065L0 39.2512C2.90885 35.0442 9.61798 32.712 14.7319 32.712C23.74 32.712 29.8392 36.7361 29.6515 42.3607C29.5108 46.1562 26.8365 48.3511 23.4585 49.6315C26.8365 50.9119 29.5108 53.1069 29.6515 56.9024C29.8392 62.5269 23.74 66.551 14.7319 66.551C9.61798 66.551 2.90885 64.2189 0 60.0119L3.84719 56.8566C6.84987 60.0576 11.9638 61.1551 15.4826 61.1551C20.1743 61.1551 23.3177 59.4174 23.4116 57.131C23.6931 51.6436 14.9665 52.1466 9.80564 52.1466V47.1165C14.9665 47.1165 23.6931 47.6195 23.4116 42.1321C23.3177 39.8457 20.1743 38.108 15.4826 38.108C11.9638 38.108 6.84987 39.2055 3.84719 42.4065Z" fill="#FFFFFE"/>
<path d="M32.5581 28.1786L49.0745 0.978638L65.3061 28.1786H32.5581Z" fill="#E87F3E"/>
</svg>
