<svg width="230" height="190" viewBox="0 0 230 190" fill="none" xmlns="http://www.w3.org/2000/svg">
<path d="M200.487 188.92V151.091H230V157.576H207.663V166.925H228.921V173.086H207.663V182.435H230V188.92H200.487Z" fill="#1F3F81"/>
<path d="M158.546 188.92V151.091H165.722V177.949L186.224 151.091H193.454V188.92H186.224V162.061L165.722 188.92H158.546Z" fill="#1F3F81"/>
<path d="M117.711 188.92V151.091H124.887V166.763H144.311V151.091H151.54V188.92H144.311V173.248H124.887V188.92H117.711Z" fill="#1F3F81"/>
<path d="M107.158 188.92L104.137 181.786H86.17L83.1485 188.92H75.7028L91.4036 151.091H98.9032L114.604 188.92H107.158ZM88.6519 175.68H101.655L95.1804 160.332L88.6519 175.68Z" fill="#1F3F81"/>
<path d="M38.7815 188.92V151.091H45.9574V166.763H65.381V151.091H72.6109V188.92H65.381V173.248H45.9574V188.92H38.7815Z" fill="#1F3F81"/>
<path d="M4.42427 161.467L0 157.738C3.34518 152.766 11.0607 150.01 16.9417 150.01C27.301 150.01 34.3151 154.765 34.0992 161.413C33.9374 165.898 30.862 168.492 26.9772 170.005C30.862 171.518 33.9374 174.112 34.0992 178.598C34.3151 185.245 27.301 190.001 16.9417 190.001C11.0607 190.001 3.34518 187.244 0 182.273L4.42427 178.544C7.87736 182.327 13.7584 183.624 17.805 183.624C23.2004 183.624 26.8154 181.57 26.9233 178.868C27.247 172.383 17.2115 172.977 11.2765 172.977V167.033C17.2115 167.033 27.247 167.627 26.9233 161.142C26.8154 158.44 23.2004 156.387 17.805 156.387C13.7584 156.387 7.87736 157.684 4.42427 161.467Z" fill="#1F3F81"/>
<path fill-rule="evenodd" clip-rule="evenodd" d="M115 0.000488281L34.7674 131.259H196.57L115 0.000488281ZM115 129.919C138.633 129.919 157.791 110.73 157.791 87.0594C157.791 63.3886 138.633 44.1996 115 44.1996C91.3674 44.1996 72.2093 63.3886 72.2093 87.0594C72.2093 94.8569 74.2882 102.168 77.9211 108.467L115 44.1996L151.992 108.489H77.9339C85.3326 121.3 99.1614 129.919 115 129.919ZM132.572 97.7447C134.505 94.5666 135.618 90.8339 135.618 86.8407C135.618 75.402 126.484 66.1001 115.122 65.8532L132.572 97.7447ZM132.554 97.7744H96.7638C100.446 103.807 107.083 107.833 114.659 107.833C122.235 107.833 128.872 103.807 132.554 97.7744ZM96.5729 97.4553C94.7471 94.341 93.7002 90.7133 93.7002 86.8407C93.7002 75.2469 103.084 65.8482 114.659 65.8482C114.73 65.8482 114.802 65.8486 114.873 65.8493L96.5729 97.4553Z" fill="#E87F3E"/>
</svg>
